<?xml version="1.0" encoding="utf-8"?>
<!-- Generator: Adobe Illustrator 25.0.0, SVG Export Plug-In . SVG Version: 6.00 Build 0)  -->
<svg version="1.1" id="katman_1" xmlns="http://www.w3.org/2000/svg" xmlns:xlink="http://www.w3.org/1999/xlink" x="0px" y="0px"
	 viewBox="0 0 20 20" style="enable-background:new 0 0 20 20;" xml:space="preserve">
<style type="text/css">
	.st0{fill:#3CAA36;}
	.st1{fill:#FFFBEC;}
</style>
<g>
	<path class="st0" d="M10,18.2l-2.2,1.5l-1.3-2.4l-2.7,0.4l-0.2-2.7L1,14.3l1-2.5L0,10l2-1.8L1,5.7l2.6-0.8l0.2-2.7l2.7,0.4l1.3-2.4
		L10,1.8l2.2-1.5l1.3,2.4l2.7-0.4l0.2,2.7L19,5.7l-1,2.5l2,1.8l-2,1.8l1,2.5l-2.6,0.8l-0.2,2.7l-2.7-0.4l-1.3,2.4L10,18.2z"/>
	<path class="st1" d="M5.3,10.4l1.2-1.2l2.4,2.4L14,6.4l1.2,1.2L10,12.7v0l-1.2,1.2L5.3,10.4L5.3,10.4z"/>
</g>
</svg>
