<?xml version="1.0" encoding="utf-8"?>
<!-- Generator: Adobe Illustrator 16.0.0, SVG Export Plug-In . SVG Version: 6.00 Build 0)  -->
<!DOCTYPE svg PUBLIC "-//W3C//DTD SVG 1.1//EN" "http://www.w3.org/Graphics/SVG/1.1/DTD/svg11.dtd">
<svg version="1.1" id="Layer_1" xmlns="http://www.w3.org/2000/svg" xmlns:xlink="http://www.w3.org/1999/xlink" x="0px" y="0px"
	 width="1000px" height="164.5px" viewBox="0 0 1000 164.5" enable-background="new 0 0 1000 164.5" xml:space="preserve">
<g>
	<g>
		<path fill="#FFFFFF" d="M315.13,25.514v76.533c0,14.246-2.361,23.689-7.062,28.348c-4.722,4.662-14.309,6.979-28.763,6.979
			c-15.384,0-25.366-2.238-29.942-6.752c-4.576-4.492-6.875-14.328-6.875-29.484l0.249-8.201h20.064
			c0.33,4.121,0.497,7.205,0.497,9.256c0,1.947,0.082,4.307,0.249,7.063c0.33,6.709,5.652,10.084,16.006,10.084
			c6.17,0,10.146-1.199,11.906-3.623c1.76-2.4,2.65-7.848,2.65-16.299V25.475h21.018L315.13,25.514L315.13,25.514z"/>
		<path fill="#FFFFFF" d="M457.24,24.541c20.146,0,33.13,3.354,38.906,10.042c5.799,6.688,8.697,21.658,8.697,44.894
			c0,25.407-2.921,41.415-8.739,48.02c-5.815,6.607-19.918,9.918-42.281,9.918c-20.146,0-33.171-3.271-39.073-9.793
			s-8.863-20.895-8.863-43.113c0-26.44,2.899-43.027,8.696-49.798C420.382,27.916,434.607,24.541,457.24,24.541z M455.604,42.577
			c-14.144,0-22.403,1.822-24.786,5.446c-2.381,3.624-3.581,16.192-3.581,37.708c0,15.922,1.388,25.512,4.183,28.762
			c2.795,3.252,11.016,4.865,24.661,4.865c13.046,0,20.874-1.822,23.479-5.488c2.61-3.664,3.896-14.742,3.896-33.274
			c0-18.572-1.243-29.567-3.706-32.942C477.326,44.274,469.271,42.577,455.604,42.577z"/>
		<path fill="#FFFFFF" d="M666.627,25.514h22.261l-35.739,110.904h-32.346L585.375,25.514h21.845l20.79,62.804
			c1.946,6.004,4.846,16.09,8.696,30.23h0.58l2.109-7.559c2.609-9.42,4.824-16.959,6.669-22.59L666.627,25.514z"/>
		<path fill="#FFFFFF" d="M795.65,25.514v110.904h-21.038V25.514H795.65z"/>
		<path fill="#FFFFFF" d="M958.965,115.133h-47.852l-6.896,21.287h-22.26l36.878-110.905h31.6l37.458,110.905h-21.865
			L958.965,115.133z M954.1,99.623l-19.175-57.771l-18.842,57.771H954.1z"/>
	</g>
	<g>
		<g>
			<g>
				<path fill="#FFFFFF" d="M115.123,45.392v73.696c0,2.588-2.402,4.68-5.342,4.68h-7.289c-2.961,0-5.342-2.092-5.342-4.68V45.392
					c0-2.589,2.402-4.681,5.342-4.681h7.289C112.72,40.712,115.123,42.803,115.123,45.392z"/>
			</g>
			<g>
				<path fill="#FFFFFF" d="M86.713,105.193v10.623c0,4.35-3.52,7.848-7.847,7.848h-8.801c-4.348,0-7.849-3.52-7.849-7.848v-10.623
					c0-4.35,3.521-7.85,7.849-7.85h8.801C83.193,97.324,86.713,100.846,86.713,105.193z"/>
			</g>
		</g>
		<g>
			<g>
				<path fill="#FFFFFF" d="M88.659,153.957c-39.55,0-71.708-32.178-71.708-71.706c0-39.551,32.178-71.709,71.708-71.709
					c39.529,0,71.708,32.18,71.708,71.709C160.367,121.779,128.209,153.957,88.659,153.957z M88.659,22.946
					c-32.696,0-59.304,26.608-59.304,59.306c0,32.696,26.608,59.303,59.304,59.303c32.696,0,59.304-26.605,59.304-59.303
					C147.963,49.554,121.355,22.946,88.659,22.946z"/>
			</g>
		</g>
	</g>
</g>
</svg>
