<?xml version="1.0" encoding="utf-8"?>
<!-- Generator: Adobe Illustrator 16.0.0, SVG Export Plug-In . SVG Version: 6.00 Build 0)  -->
<!DOCTYPE svg PUBLIC "-//W3C//DTD SVG 1.1//EN" "http://www.w3.org/Graphics/SVG/1.1/DTD/svg11.dtd">
<svg version="1.1" id="Layer_1" xmlns="http://www.w3.org/2000/svg" xmlns:xlink="http://www.w3.org/1999/xlink" x="0px" y="0px"
	 width="100px" height="100px" viewBox="0 0 100 100" enable-background="new 0 0 100 100" xml:space="preserve">
<path fill="#A93279" d="M66.661,26.575v46.187c0,1.622-1.501,2.938-3.353,2.938h-4.569c-1.852,0-3.354-1.315-3.354-2.938V26.575
	c0-1.622,1.502-2.936,3.354-2.936h4.569C65.16,23.639,66.661,24.953,66.661,26.575"/>
<path fill="#A93279" d="M48.855,64.047v6.661c0,2.718-2.204,4.922-4.923,4.922h-5.52c-2.719,0-4.924-2.204-4.924-4.922v-6.661
	c0-2.718,2.205-4.922,4.924-4.922h5.52C46.651,59.125,48.855,61.329,48.855,64.047"/>
<path fill="#A93279" d="M50.075,94.609c-24.781,0-44.94-20.162-44.94-44.939c0-24.781,20.159-44.942,44.94-44.942
	c24.78,0,44.939,20.161,44.939,44.942C95.015,74.447,74.855,94.609,50.075,94.609 M50.075,12.505
	c-20.492,0-37.165,16.672-37.165,37.165c0,20.491,16.672,37.163,37.165,37.163c20.491,0,37.164-16.672,37.164-37.163
	C87.239,29.177,70.566,12.505,50.075,12.505"/>
</svg>
