<?xml version="1.0" encoding="utf-8"?>
<!-- Generator: Adobe Illustrator 25.0.0, SVG Export Plug-In . SVG Version: 6.00 Build 0)  -->
<svg version="1.1" id="Layer_1" xmlns="http://www.w3.org/2000/svg" xmlns:xlink="http://www.w3.org/1999/xlink" x="0px" y="0px"
	 viewBox="0 0 1000 250" style="enable-background:new 0 0 1000 250;" xml:space="preserve">
<style type="text/css">
	.st0{fill:#FFFFFF;}
</style>
<g>
	<g>
		<path class="st0" d="M244.8,181.5c-2.2,0-3.9-0.6-5.1-1.8c-1.2-1.2-1.8-2.9-1.8-5.1V88.8c0-2.2,0.6-3.9,1.8-5.1
			c1.2-1.2,2.9-1.8,5.1-1.8s3.9,0.6,5.1,1.8c1.2,1.2,1.8,2.9,1.8,5.1v85.8c0,2.2-0.6,3.9-1.8,5.1C248.7,180.9,247,181.5,244.8,181.5
			z M243.7,120.1c0.4-7.5,2.3-14.3,5.9-20.2s8.3-10.6,14-14c5.8-3.4,12.2-5.1,19.2-5.1c5.6,0,9.9,0.8,12.9,2.4
			c3,1.6,4.2,3.9,3.5,6.9c-0.5,1.8-1.3,3-2.5,3.6c-1.2,0.6-2.5,0.8-4.2,0.7c-1.6-0.1-3.5-0.2-5.5-0.4c-6.8-0.6-12.8,0.1-18.1,2.1
			s-9.5,5.1-12.6,9.2s-4.6,9.1-4.6,14.8C251.7,120.1,243.7,120.1,243.7,120.1z"/>
		<path class="st0" d="M357.9,182.4c-9.4,0-17.7-2.2-25.1-6.6c-7.4-4.4-13.3-10.5-17.6-18.1s-6.5-16.3-6.5-25.9
			c0-9.7,2.2-18.4,6.6-26c4.4-7.7,10.5-13.7,18.1-18.1s16.3-6.7,25.9-6.7c9.6,0,18.2,2.2,25.8,6.7s13.6,10.5,18,18.1
			s6.7,16.3,6.8,26l-5.6,4.4c0,8.7-2,16.6-6.1,23.6s-9.6,12.5-16.6,16.6C374.7,180.3,366.8,182.4,357.9,182.4z M359.4,169.6
			c7,0,13.3-1.6,18.9-4.9c5.5-3.3,9.9-7.8,13.1-13.6c3.2-5.8,4.8-12.2,4.8-19.4c0-7.3-1.6-13.8-4.8-19.5s-7.6-10.2-13.1-13.6
			c-5.5-3.3-11.8-5-18.9-5c-6.9,0-13.2,1.7-18.8,5c-5.6,3.3-10,7.9-13.3,13.6c-3.3,5.7-4.9,12.2-4.9,19.5c0,7.2,1.6,13.6,4.9,19.4
			c3.3,5.8,7.7,10.3,13.3,13.6C346.2,168,352.5,169.6,359.4,169.6z M402.9,181.5c-2.1,0-3.8-0.6-5.1-1.9c-1.3-1.3-2-2.9-2-5v-31.1
			l3.5-14.4l10.8,2.7v42.8c0,2.1-0.7,3.7-2,5C406.7,180.8,405,181.5,402.9,181.5z"/>
		<path class="st0" d="M444.5,181.5c-2.2,0-3.9-0.6-5.2-1.9c-1.3-1.3-1.9-2.9-1.9-5V88.9c0-2.2,0.6-3.9,1.9-5.2s3-1.9,5.2-1.9
			c2.1,0,3.7,0.6,5,1.9s1.9,3,1.9,5.2v85.6c0,2.1-0.6,3.7-1.9,5C448.2,180.8,446.5,181.5,444.5,181.5z M522.8,181.5
			c-2.1,0-3.8-0.7-5.1-2c-1.3-1.3-2-3-2-4.9v-47.3c0-7.5-1.4-13.7-4.3-18.6c-2.9-4.8-6.7-8.5-11.7-10.9S489.3,94,483.1,94
			c-6,0-11.3,1.2-16.1,3.5c-4.8,2.3-8.6,5.5-11.4,9.5s-4.2,8.6-4.2,13.7h-10c0.2-7.7,2.3-14.5,6.2-20.5c3.9-6,9-10.8,15.5-14.2
			c6.4-3.5,13.6-5.2,21.5-5.2c8.6,0,16.3,1.8,23.1,5.4s12.2,8.8,16.1,15.8c3.9,6.9,5.9,15.4,5.9,25.3v47.3c0,1.9-0.7,3.6-2,4.9
			C526.3,180.8,524.7,181.5,522.8,181.5z"/>
		<path class="st0" d="M606,182.4c-9.6,0-18.2-2.2-25.9-6.6c-7.7-4.4-13.7-10.5-18.1-18.1s-6.7-16.3-6.7-26c0-9.6,2.2-18.2,6.5-25.9
			C566.1,98,572,92,579.4,87.6c7.4-4.4,15.8-6.7,25.1-6.7c8.1,0,15.5,1.7,22,5.2s11.8,8,15.8,13.8V46.3c0-2.2,0.7-3.9,2-5.2
			s3-1.9,5.1-1.9c2.1,0,3.8,0.6,5.1,1.9c1.3,1.3,2,3,2,5.2v86c-0.3,9.5-2.6,18-7,25.6s-10.4,13.6-18,17.9
			C624,180.2,615.5,182.4,606,182.4z M606,169.6c7,0,13.3-1.7,18.8-5c5.5-3.3,9.9-7.9,13.1-13.6c3.2-5.7,4.8-12.2,4.8-19.5
			c0-7.2-1.6-13.6-4.8-19.4c-3.2-5.8-7.6-10.3-13.1-13.6c-5.5-3.3-11.8-4.9-18.8-4.9c-6.9,0-13.2,1.6-18.8,4.9
			c-5.6,3.3-10,7.8-13.3,13.6c-3.3,5.8-4.9,12.2-4.9,19.4c0,7.3,1.6,13.8,4.9,19.5c3.3,5.7,7.7,10.2,13.3,13.6
			C592.8,168,599.1,169.6,606,169.6z"/>
		<path class="st0" d="M734.6,182.4c-9.8,0-18.5-2.1-26.1-6.5c-7.6-4.3-13.5-10.3-17.8-17.9c-4.3-7.6-6.5-16.4-6.5-26.2
			c0-9.9,2-18.7,6.1-26.3c4.1-7.6,9.7-13.6,16.8-17.9c7.2-4.4,15.4-6.6,24.8-6.6c9.2,0,17.3,2.1,24.1,6.3s12.2,10,15.9,17.4
			c3.8,7.4,5.7,15.8,5.7,25.3c0,1.9-0.6,3.5-1.8,4.6c-1.2,1.2-2.8,1.7-4.7,1.7h-77.4v-11.7h78.9l-7.8,5.6c0.1-7-1.2-13.3-3.8-18.9
			c-2.7-5.6-6.5-9.9-11.4-13.1s-10.8-4.7-17.6-4.7c-6.9,0-13,1.6-18.2,4.9c-5.2,3.3-9.3,7.8-12.1,13.6s-4.3,12.4-4.3,19.8
			c0,7.4,1.6,14,4.8,19.7c3.2,5.7,7.6,10.2,13.2,13.5s12,4.9,19.3,4.9c4.4,0,8.8-0.8,13.2-2.3s8-3.4,10.7-5.7
			c1.3-1.1,2.8-1.7,4.5-1.7s3.2,0.4,4.4,1.4c1.6,1.5,2.4,3,2.5,4.7c0.1,1.7-0.6,3.2-2.1,4.4c-4,3.4-9.1,6.2-15.3,8.5
			C746.2,181.3,740.3,182.4,734.6,182.4z"/>
		<path class="st0" d="M831.6,181.5c-2.9,0-5.1-1.6-6.6-4.7l-40.4-85.8c-0.7-1.6-0.8-3.2-0.2-4.7c0.6-1.6,1.8-2.8,3.6-3.6
			c1.7-0.8,3.3-1,4.9-0.4c1.6,0.6,2.8,1.7,3.6,3.3l38.8,84H828l38.3-84c0.7-1.7,2-2.8,3.7-3.4s3.5-0.5,5.2,0.3
			c1.7,0.8,2.8,2.1,3.5,3.7c0.6,1.6,0.5,3.2-0.2,4.6l-39.9,86C837.1,179.9,834.8,181.5,831.6,181.5z"/>
		<path class="st0" d="M941.7,182.6c-8.6,0-16.3-1.8-23.1-5.4s-12.2-8.8-16.1-15.8s-5.9-15.4-5.9-25.3V88.8c0-1.9,0.7-3.6,2-4.9
			c1.3-1.3,3-2,4.9-2c2.1,0,3.8,0.7,5.1,2c1.3,1.3,2,3,2,4.9v47.3c0,7.5,1.4,13.7,4.3,18.6c2.8,4.9,6.7,8.5,11.7,10.9
			s10.5,3.6,16.7,3.6c6,0,11.3-1.1,16.1-3.5c4.8-2.3,8.6-5.5,11.4-9.5s4.2-8.6,4.2-13.7h10c-0.4,7.6-2.5,14.5-6.3,20.5
			c-3.8,6-9,10.8-15.4,14.2C956.7,180.8,949.5,182.6,941.7,182.6z M981.7,181.5c-2.1,0-3.7-0.6-5-1.9c-1.3-1.3-1.9-3-1.9-5.2V88.8
			c0-2.1,0.6-3.7,1.9-5c1.3-1.3,2.9-1.9,5-1.9c2.1,0,3.8,0.6,5.1,1.9c1.3,1.3,2,2.9,2,5v85.6c0,2.2-0.7,3.9-2,5.2
			C985.5,180.8,983.8,181.5,981.7,181.5z"/>
	</g>
</g>
<g>
	<path class="st0" d="M244.8,181.5c-2.2,0-3.9-0.6-5.1-1.8c-1.2-1.2-1.8-2.9-1.8-5.1V88.8c0-2.2,0.6-3.9,1.8-5.1
		c1.2-1.2,2.9-1.8,5.1-1.8s3.9,0.6,5.1,1.8c1.2,1.2,1.8,2.9,1.8,5.1v85.8c0,2.2-0.6,3.9-1.8,5.1C248.7,180.9,247,181.5,244.8,181.5z
		 M243.7,120.1c0.4-7.5,2.3-14.3,5.9-20.2s8.3-10.6,14-14c5.8-3.4,12.2-5.1,19.2-5.1c5.6,0,9.9,0.8,12.9,2.4c3,1.6,4.2,3.9,3.5,6.9
		c-0.5,1.8-1.3,3-2.5,3.6c-1.2,0.6-2.5,0.8-4.2,0.7c-1.6-0.1-3.5-0.2-5.5-0.4c-6.8-0.6-12.8,0.1-18.1,2.1s-9.5,5.1-12.6,9.2
		s-4.6,9.1-4.6,14.8C251.7,120.1,243.7,120.1,243.7,120.1z"/>
	<path class="st0" d="M357.9,182.4c-9.4,0-17.7-2.2-25.1-6.6c-7.4-4.4-13.3-10.5-17.6-18.1s-6.5-16.3-6.5-25.9
		c0-9.7,2.2-18.4,6.6-26c4.4-7.7,10.5-13.7,18.1-18.1s16.3-6.7,25.9-6.7c9.6,0,18.2,2.2,25.8,6.7s13.6,10.5,18,18.1s6.7,16.3,6.8,26
		l-5.6,4.4c0,8.7-2,16.6-6.1,23.6s-9.6,12.5-16.6,16.6C374.7,180.3,366.8,182.4,357.9,182.4z M359.4,169.6c7,0,13.3-1.6,18.9-4.9
		c5.5-3.3,9.9-7.8,13.1-13.6c3.2-5.8,4.8-12.2,4.8-19.4c0-7.3-1.6-13.8-4.8-19.5s-7.6-10.2-13.1-13.6c-5.5-3.3-11.8-5-18.9-5
		c-6.9,0-13.2,1.7-18.8,5c-5.6,3.3-10,7.9-13.3,13.6c-3.3,5.7-4.9,12.2-4.9,19.5c0,7.2,1.6,13.6,4.9,19.4
		c3.3,5.8,7.7,10.3,13.3,13.6C346.2,168,352.5,169.6,359.4,169.6z M402.9,181.5c-2.1,0-3.8-0.6-5.1-1.9c-1.3-1.3-2-2.9-2-5v-31.1
		l3.5-14.4l10.8,2.7v42.8c0,2.1-0.7,3.7-2,5C406.7,180.8,405,181.5,402.9,181.5z"/>
	<path class="st0" d="M444.5,181.5c-2.2,0-3.9-0.6-5.2-1.9c-1.3-1.3-1.9-2.9-1.9-5V88.9c0-2.2,0.6-3.9,1.9-5.2s3-1.9,5.2-1.9
		c2.1,0,3.7,0.6,5,1.9s1.9,3,1.9,5.2v85.6c0,2.1-0.6,3.7-1.9,5C448.2,180.8,446.5,181.5,444.5,181.5z M522.8,181.5
		c-2.1,0-3.8-0.7-5.1-2c-1.3-1.3-2-3-2-4.9v-47.3c0-7.5-1.4-13.7-4.3-18.6c-2.9-4.8-6.7-8.5-11.7-10.9S489.3,94,483.1,94
		c-6,0-11.3,1.2-16.1,3.5c-4.8,2.3-8.6,5.5-11.4,9.5s-4.2,8.6-4.2,13.7h-10c0.2-7.7,2.3-14.5,6.2-20.5c3.9-6,9-10.8,15.5-14.2
		c6.4-3.5,13.6-5.2,21.5-5.2c8.6,0,16.3,1.8,23.1,5.4s12.2,8.8,16.1,15.8c3.9,6.9,5.9,15.4,5.9,25.3v47.3c0,1.9-0.7,3.6-2,4.9
		C526.3,180.8,524.7,181.5,522.8,181.5z"/>
	<path class="st0" d="M606,182.4c-9.6,0-18.2-2.2-25.9-6.6c-7.7-4.4-13.7-10.5-18.1-18.1s-6.7-16.3-6.7-26c0-9.6,2.2-18.2,6.5-25.9
		C566.1,98,572,92,579.4,87.6c7.4-4.4,15.8-6.7,25.1-6.7c8.1,0,15.5,1.7,22,5.2s11.8,8,15.8,13.8V46.3c0-2.2,0.7-3.9,2-5.2
		s3-1.9,5.1-1.9c2.1,0,3.8,0.6,5.1,1.9c1.3,1.3,2,3,2,5.2v86c-0.3,9.5-2.6,18-7,25.6s-10.4,13.6-18,17.9
		C624,180.2,615.5,182.4,606,182.4z M606,169.6c7,0,13.3-1.7,18.8-5c5.5-3.3,9.9-7.9,13.1-13.6c3.2-5.7,4.8-12.2,4.8-19.5
		c0-7.2-1.6-13.6-4.8-19.4c-3.2-5.8-7.6-10.3-13.1-13.6c-5.5-3.3-11.8-4.9-18.8-4.9c-6.9,0-13.2,1.6-18.8,4.9
		c-5.6,3.3-10,7.8-13.3,13.6c-3.3,5.8-4.9,12.2-4.9,19.4c0,7.3,1.6,13.8,4.9,19.5c3.3,5.7,7.7,10.2,13.3,13.6
		C592.8,168,599.1,169.6,606,169.6z"/>
	<path class="st0" d="M734.6,182.4c-9.8,0-18.5-2.1-26.1-6.5c-7.6-4.3-13.5-10.3-17.8-17.9c-4.3-7.6-6.5-16.4-6.5-26.2
		c0-9.9,2-18.7,6.1-26.3c4.1-7.6,9.7-13.6,16.8-17.9c7.2-4.4,15.4-6.6,24.8-6.6c9.2,0,17.3,2.1,24.1,6.3s12.2,10,15.9,17.4
		c3.8,7.4,5.7,15.8,5.7,25.3c0,1.9-0.6,3.5-1.8,4.6c-1.2,1.2-2.8,1.7-4.7,1.7h-77.4v-11.7h78.9l-7.8,5.6c0.1-7-1.2-13.3-3.8-18.9
		c-2.7-5.6-6.5-9.9-11.4-13.1s-10.8-4.7-17.6-4.7c-6.9,0-13,1.6-18.2,4.9c-5.2,3.3-9.3,7.8-12.1,13.6s-4.3,12.4-4.3,19.8
		c0,7.4,1.6,14,4.8,19.7c3.2,5.7,7.6,10.2,13.2,13.5s12,4.9,19.3,4.9c4.4,0,8.8-0.8,13.2-2.3s8-3.4,10.7-5.7
		c1.3-1.1,2.8-1.7,4.5-1.7s3.2,0.4,4.4,1.4c1.6,1.5,2.4,3,2.5,4.7c0.1,1.7-0.6,3.2-2.1,4.4c-4,3.4-9.1,6.2-15.3,8.5
		C746.2,181.3,740.3,182.4,734.6,182.4z"/>
	<path class="st0" d="M831.6,181.5c-2.9,0-5.1-1.6-6.6-4.7l-40.4-85.8c-0.7-1.6-0.8-3.2-0.2-4.7c0.6-1.6,1.8-2.8,3.6-3.6
		c1.7-0.8,3.3-1,4.9-0.4c1.6,0.6,2.8,1.7,3.6,3.3l38.8,84H828l38.3-84c0.7-1.7,2-2.8,3.7-3.4s3.5-0.5,5.2,0.3
		c1.7,0.8,2.8,2.1,3.5,3.7c0.6,1.6,0.5,3.2-0.2,4.6l-39.9,86C837.1,179.9,834.8,181.5,831.6,181.5z"/>
	<path class="st0" d="M941.7,182.6c-8.6,0-16.3-1.8-23.1-5.4s-12.2-8.8-16.1-15.8s-5.9-15.4-5.9-25.3V88.8c0-1.9,0.7-3.6,2-4.9
		c1.3-1.3,3-2,4.9-2c2.1,0,3.8,0.7,5.1,2c1.3,1.3,2,3,2,4.9v47.3c0,7.5,1.4,13.7,4.3,18.6c2.8,4.9,6.7,8.5,11.7,10.9
		s10.5,3.6,16.7,3.6c6,0,11.3-1.1,16.1-3.5c4.8-2.3,8.6-5.5,11.4-9.5s4.2-8.6,4.2-13.7h10c-0.4,7.6-2.5,14.5-6.3,20.5
		c-3.8,6-9,10.8-15.4,14.2C956.7,180.8,949.5,182.6,941.7,182.6z M981.7,181.5c-2.1,0-3.7-0.6-5-1.9c-1.3-1.3-1.9-3-1.9-5.2V88.8
		c0-2.1,0.6-3.7,1.9-5c1.3-1.3,2.9-1.9,5-1.9c2.1,0,3.8,0.6,5.1,1.9c1.3,1.3,2,2.9,2,5v85.6c0,2.2-0.7,3.9-2,5.2
		C985.5,180.8,983.8,181.5,981.7,181.5z"/>
</g>
<path class="st0" d="M164.1,129.4l-0.7-0.2c-4.6-1.2-9.5,0.9-11.8,5.1c-14.3,26.4-33.4,52.8-44.2,67.1c-4.2,5.5-12.5,5.5-16.7,0
	c-3.9-5.1-8.8-11.8-14.2-19.5c-3.9-5.5-11.8-6-16.3-1c-3.3,3.6-3.6,9.1-0.7,13.1c15.1,21.1,29.1,38.4,35.7,46.4
	c2.1,2.5,5.8,2.5,7.9,0c11.3-13.7,44.6-55.1,67.6-95.7C174,138.6,170.8,131.1,164.1,129.4"/>
<path class="st0" d="M57.2,175.7c4.5-2.8,5.9-8.7,3.1-13.3c-14.2-23-27.1-48.6-27.1-66.1c0-39.1,28.8-70.8,64.3-70.8
	s64.3,31.7,64.3,70.8c0,4.9-1,10.4-2.8,16.3c-1.4,4.7,0.9,9.8,5.5,11.7l1.2,0.5c5.1,2.1,11-0.5,12.8-5.7c3-8.6,4.7-16.6,4.7-23.6
	c0-49.3-38.4-89.2-85.7-89.2c-47.3,0-85.7,39.9-85.7,89.2c0,20.5,14.9,49.9,32.3,77.2C46.9,177.1,52.7,178.4,57.2,175.7"/>
<path class="st0" d="M97.4,70c-16.6,0-30,13.8-30,30.9c0,17.1,13.4,30.9,30,30.9s30-13.8,30-30.9C127.4,83.8,114,70,97.4,70
	 M97.4,116.6c-8.4,0-15.2-7-15.2-15.6s6.8-15.6,15.2-15.6s15.2,7,15.2,15.6S105.8,116.6,97.4,116.6"/>
</svg>
