<?xml version="1.0" encoding="utf-8"?>
<!-- Generator: Adobe Illustrator 25.0.0, SVG Export Plug-In . SVG Version: 6.00 Build 0)  -->
<svg version="1.1" baseProfile="tiny" id="Layer_1" xmlns="http://www.w3.org/2000/svg" xmlns:xlink="http://www.w3.org/1999/xlink"
	 x="0px" y="0px" viewBox="0 0 2306.9 596.2" overflow="visible" xml:space="preserve">
<g>
	<ellipse fill="none" cx="229.7" cy="244.1" rx="34.7" ry="35.8"/>
	<path fill="none" d="M1476.8,301.7c-2.8-21.7-11.9-39.5-27.3-53.3c-15.4-13.9-34.1-20.8-56.1-20.8c-15.8,0-30.2,3.8-43.1,11.3
		c-12.9,7.5-23.1,17.9-30.4,31.1c-7.4,13.2-11,28-11,44.4c0,16.4,3.7,31.2,11,44.4c7.4,13.2,17.5,23.6,30.4,31.3
		c12.9,7.6,27.3,11.5,43.1,11.5s30.1-3.8,42.9-11.5c12.8-7.6,22.9-18.1,30.2-31.3c7.4-13.2,11-28,11-44.4c0-4.7-0.1-8.2-0.4-10.4
		C1476.9,303.3,1476.8,302.6,1476.8,301.7z"/>
	<path fill="none" d="M1681.4,227.1c-21.1,0-38.6,6.5-52.5,19.6c-13.9,13.1-22.4,30.3-25.4,51.7h152.5c-2.2-21.4-10-38.6-23.3-51.7
		C1719.4,233.7,1702.3,227.1,1681.4,227.1z"/>
	<path fill="none" d="M902.3,270.3c-7.4-13.2-17.4-23.6-30.2-31.3c-12.8-7.6-27.1-11.5-42.9-11.5c-15.8,0-30.2,3.8-43.1,11.5
		c-12.9,7.6-23.1,18.1-30.4,31.3c-7.4,13.2-11,28-11,44.4c0,16.4,3.7,31.2,11,44.4c7.4,13.2,17.5,23.5,30.4,31.1
		c12.9,7.5,27.3,11.3,43.1,11.3c15.8,0,30.1-3.8,42.9-11.3c12.8-7.5,22.9-17.9,30.2-31.1c7.4-13.2,11-28,11-44.4
		C913.3,298.3,909.6,283.5,902.3,270.3z"/>
	<path fill="#1D1D1B" d="M578.6,204.6c-2.8-2.8-6.7-4.2-11.7-4.2s-8.9,1.4-11.7,4.2c-2.8,2.8-4.2,6.7-4.2,11.7v196.3
		c0,5,1.4,8.9,4.2,11.7c2.8,2.8,6.7,4.2,11.7,4.2s8.9-1.4,11.7-4.2c2.8-2.8,4.2-6.7,4.2-11.7V288c0-17.8,6.6-32.2,19.8-43.3
		c13.2-11.1,30.2-16.7,51.1-16.7c4.4,0,7.8,0.1,10,0.4c6.1,0.6,10.4,0.8,12.9,0.8c4.2,0,7.4-0.7,9.8-2.1c2.4-1.4,4.1-4,5.2-7.9
		c0.3-0.8,0.4-2.1,0.4-3.8c0-5.6-3.4-9.9-10.2-12.9c-6.8-3.1-16-4.6-27.7-4.6c-14.5,0-27.9,3.2-40.4,9.6
		c-12.5,6.4-22.8,15.4-30.8,27.1v-18.3C582.8,211.3,581.4,207.4,578.6,204.6z"/>
	<path fill="#1D1D1B" d="M1504.5,107.5c-2.9-3.1-6.7-4.6-11.5-4.6c-4.7,0-8.6,1.5-11.7,4.6c-3.1,3.1-4.6,6.9-4.6,11.7v122.1
		c-9.7-13.3-22.1-23.8-37.1-31.5c-15-7.6-31.5-11.5-49.6-11.5c-21.1,0-40.2,5.1-57.3,15.2c-17.1,10.1-30.6,24-40.4,41.7
		c-9.9,17.6-14.8,37.3-14.8,59c0,21.7,5.1,41.4,15.2,59.2c10.1,17.8,24,31.7,41.7,41.9c17.6,10.1,37.3,15.2,59,15.2
		c21.7,0,41.3-5.1,59-15.2c17.6-10.1,31.5-24.1,41.7-41.9c10.1-17.8,15.2-37.5,15.2-59.2v-97.9c0-1.7-0.1-2.9-0.4-3.8v-93.4
		C1508.9,114.5,1507.4,110.6,1504.5,107.5z M1466.6,358.6c-7.4,13.2-17.4,23.6-30.2,31.3c-12.8,7.6-27.1,11.5-42.9,11.5
		s-30.2-3.8-43.1-11.5c-12.9-7.6-23.1-18.1-30.4-31.3c-7.4-13.2-11-28-11-44.4c0-16.4,3.7-31.2,11-44.4
		c7.4-13.2,17.5-23.5,30.4-31.1c12.9-7.5,27.3-11.3,43.1-11.3c21.9,0,40.6,6.9,56.1,20.8c15.4,13.9,24.5,31.7,27.3,53.3
		c0,0.8,0.1,1.5,0.4,2.1c0.3,2.2,0.4,5.7,0.4,10.4C1477.6,330.6,1474,345.4,1466.6,358.6z"/>
	<path fill="#1D1D1B" d="M917.1,424.1c3.1,2.9,6.9,4.4,11.7,4.4c4.7,0,8.6-1.5,11.7-4.6c3.1-3.1,4.6-6.8,4.6-11.3v-97.9
		c0-21.7-5.1-41.4-15.2-59.2c-10.1-17.8-24-31.7-41.7-41.9c-17.6-10.1-37.3-15.2-59-15.2c-21.7,0-41.3,5.1-59,15.2
		c-17.6,10.1-31.5,24.1-41.7,41.9c-10.1,17.8-15.2,37.5-15.2,59.2c0,21.7,4.9,41.3,14.8,59c9.9,17.6,23.3,31.5,40.4,41.7
		c17.1,10.1,36.2,15.2,57.3,15.2c18.1,0,34.6-3.8,49.6-11.5c15-7.6,27.4-18.1,37.1-31.5v25C912.5,417.3,914,421.2,917.1,424.1z
		 M902.3,359.1c-7.4,13.2-17.4,23.5-30.2,31.1c-12.8,7.5-27.1,11.3-42.9,11.3c-15.8,0-30.2-3.8-43.1-11.3
		c-12.9-7.5-23.1-17.9-30.4-31.1c-7.4-13.2-11-28-11-44.4c0-16.4,3.7-31.2,11-44.4c7.4-13.2,17.5-23.6,30.4-31.3
		c12.9-7.6,27.3-11.5,43.1-11.5c15.8,0,30.1,3.8,42.9,11.5c12.8,7.6,22.9,18.1,30.2,31.3c7.4,13.2,11,28,11,44.4
		C913.3,331.1,909.6,345.9,902.3,359.1z"/>
	<path fill="#1D1D1B" d="M1035.2,205c-2.9-3.1-6.7-4.6-11.5-4.6c-4.7,0-8.6,1.5-11.7,4.6c-3.1,3.1-4.6,6.9-4.6,11.7v195.9
		c0,4.7,1.5,8.5,4.6,11.5c3.1,2.9,6.9,4.4,11.7,4.4c4.7,0,8.5-1.5,11.5-4.4c2.9-2.9,4.4-6.7,4.4-11.5V289.2
		c0-11.4,3.2-21.7,9.6-31.1c6.4-9.3,15.1-16.6,26-21.9c11-5.3,23.3-7.9,36.9-7.9c22.2,0,40.2,6.5,54,19.4
		c13.8,12.9,20.6,31.7,20.6,56.5v108.4c0,4.4,1.5,8.2,4.6,11.3c3.1,3.1,6.9,4.6,11.7,4.6c4.4,0,8.2-1.5,11.3-4.6
		c3.1-3.1,4.6-6.8,4.6-11.3V304.2c0-22.2-4.4-41.3-13.3-57.3c-8.9-16-21.2-28.1-36.9-36.5c-15.7-8.3-33.4-12.5-53.1-12.5
		c-15.3,0-29.5,2.9-42.5,8.8c-13.1,5.8-24.2,13.9-33.3,24.2v-14.2C1039.6,212,1038.1,208.1,1035.2,205z"/>
	<path fill="#1D1D1B" d="M1781.9,321.1c2.8-2.6,4.2-6.2,4.2-10.6c0-21.7-4.4-41-13.1-57.9c-8.8-16.9-21-30.2-36.9-39.8
		c-15.8-9.6-34-14.4-54.6-14.4c-21.1,0-39.9,4.9-56.5,14.8c-16.5,9.9-29.5,23.6-38.8,41.3c-9.3,17.6-14,37.7-14,60.2
		c0,22.2,4.9,42.2,14.8,59.8c9.9,17.6,23.5,31.4,41.1,41.3c17.5,9.9,37.4,14.8,59.6,14.8c13.1,0,26.7-2.6,40.8-7.7
		c14.2-5.1,25.8-11.6,35-19.4c3.1-2.8,4.6-6,4.6-9.6c0-4.2-1.8-7.9-5.4-11.3c-3.1-2.2-6.1-3.3-9.2-3.3c-3.9,0-7.6,1.4-11.3,4.2
		c-6.1,5.3-14.2,9.7-24.4,13.1c-10.1,3.5-20.2,5.2-30.2,5.2c-23.3,0-42.8-7.1-58.4-21.3c-15.6-14.2-24.5-32.6-26.7-55.4h168.4
		C1775.5,325.1,1779.1,323.8,1781.9,321.1z M1603.5,298.4c3.1-21.4,11.5-38.6,25.4-51.7c13.9-13.1,31.4-19.6,52.5-19.6
		c20.8,0,37.9,6.5,51.3,19.6c13.3,13.1,21.1,30.3,23.3,51.7H1603.5z"/>
	<path fill="#1D1D1B" d="M2253.3,200.5c-4.7,0-8.5,1.5-11.5,4.4c-2.9,2.9-4.4,6.7-4.4,11.5v123.4c0,11.4-3.2,21.7-9.6,31.1
		c-6.4,9.3-15.1,16.6-26,21.9c-11,5.3-23.3,7.9-36.9,7.9c-22.2,0-40.2-6.5-54-19.4s-20.6-31.7-20.6-56.5V216.3
		c0-4.4-1.5-8.2-4.6-11.3c-3.1-3.1-6.9-4.6-11.7-4.6c-4.4,0-8.2,1.5-11.3,4.6c-3.1,3.1-4.6,6.8-4.6,11.3v108.4
		c0,22.2,4.4,41.3,13.3,57.3c8.9,16,21.2,28.1,36.9,36.5c15.7,8.3,33.4,12.5,53.1,12.5c15.3,0,29.4-2.9,42.5-8.8
		c13.1-5.8,24.2-13.9,33.3-24.2v14.2c0,4.7,1.5,8.6,4.4,11.7c2.9,3.1,6.7,4.6,11.5,4.6c4.7,0,8.6-1.5,11.7-4.6
		c3.1-3.1,4.6-6.9,4.6-11.7V216.3c0-4.7-1.5-8.5-4.6-11.5C2261.9,201.9,2258,200.5,2253.3,200.5z"/>
	<path fill="#1D1D1B" d="M1909.8,428.4c6.9,0,12.2-3.6,15.8-10.8l91.3-196.7c0.8-2.2,1.3-4.2,1.3-5.8c0-6.1-2.9-10.6-8.8-13.3
		c-1.9-1.1-4.2-1.7-6.7-1.7c-3.1,0-5.8,0.8-8.3,2.3c-2.5,1.5-4.3,3.7-5.4,6.5l-79.2,173.4l-80-173.4c-1.1-2.8-2.9-4.9-5.2-6.3
		c-2.4-1.4-4.9-2.1-7.7-2.1c-2.5,0-4.7,0.6-6.7,1.7c-6.1,3.1-9.2,7.5-9.2,13.3c0,2.2,0.4,4.2,1.3,5.8l92.5,196.3
		C1898.2,424.8,1903.2,428.4,1909.8,428.4z"/>
	<path fill="#3CAA36" d="M144.5,427.1c-7.5,8.4-8.2,20.8-1.7,30c34.5,48.3,66.6,88,81.7,106.2c4.7,5.7,13.3,5.6,18,0
		c25.9-31.3,102.1-126,154.6-219.1c7.7-13.7,0.3-31-14.9-34.9l-1.6-0.4c-10.6-2.7-21.7,2.1-26.9,11.7
		C321,380.8,277.3,441.4,252.6,474c-9.6,12.6-28.6,12.6-38.1,0c-8.9-11.7-20.2-27-32.6-44.6C173,416.8,154.8,415.7,144.5,427.1z"/>
	<path fill="#0069ff" d="M415,285.7c6.8-19.7,10.8-38,10.8-54c0-112.7-87.8-204.1-196.1-204.1c-108.3,0-196.1,91.4-196.1,204.1
		c0,47,34.1,114.2,73.9,176.6c6.5,10.2,19.9,13.3,30.2,6.9c10.4-6.4,13.5-20,7.1-30.3c-32.6-52.5-62.1-111.2-62.1-151.3
		c0-89.6,65.8-162.1,147-162.1c81.2,0,147,72.6,147,162.1c0,11.2-2.3,23.8-6.3,37.3c-3.2,10.8,2.2,22.4,12.6,26.7l2.8,1.2
		C397.5,303.6,410.9,297.6,415,285.7z"/>
	<path fill="#3CAA36" d="M229.7,314.8c37.9,0,68.6-31.6,68.6-70.7c0-39-30.7-70.7-68.6-70.7c-37.9,0-68.6,31.6-68.6,70.7
		C161.1,283.1,191.8,314.8,229.7,314.8z M229.7,208.3c19.2,0,34.7,16,34.7,35.8c0,19.8-15.6,35.8-34.7,35.8
		c-19.2,0-34.7-16-34.7-35.8C194.9,224.3,210.5,208.3,229.7,208.3z"/>
</g>
</svg>
