<?xml version="1.0" encoding="utf-8"?>
<!-- Generator: Adobe Illustrator 16.0.0, SVG Export Plug-In . SVG Version: 6.00 Build 0)  -->
<!DOCTYPE svg PUBLIC "-//W3C//DTD SVG 1.1//EN" "http://www.w3.org/Graphics/SVG/1.1/DTD/svg11.dtd">
<svg version="1.1" id="Layer_1" xmlns="http://www.w3.org/2000/svg" xmlns:xlink="http://www.w3.org/1999/xlink" x="0px" y="0px"
	 width="1000px" height="140px" viewBox="0 0 1000 140" enable-background="new 0 0 1000 140" xml:space="preserve">
<path fill="#FFFFFF" d="M89.588,42.376v56.585c0,1.988-1.838,3.6-4.106,3.6h-5.598c-2.27,0-4.108-1.611-4.108-3.6V42.376
	c0-1.987,1.839-3.597,4.108-3.597h5.598C87.75,38.779,89.588,40.389,89.588,42.376"/>
<path fill="#FFFFFF" d="M67.773,88.285v8.16c0,3.329-2.7,6.029-6.032,6.029h-6.763c-3.331,0-6.032-2.7-6.032-6.029v-8.16
	c0-3.331,2.701-6.031,6.032-6.031h6.763C65.073,82.254,67.773,84.954,67.773,88.285"/>
<path fill="#FFFFFF" d="M69.269,125.727c-30.361,0-55.058-24.701-55.058-55.057c0-30.36,24.697-55.06,55.058-55.06
	c30.359,0,55.057,24.699,55.057,55.06C124.326,101.025,99.627,125.727,69.269,125.727 M69.269,25.138
	c-25.106,0-45.532,20.426-45.532,45.532c0,25.105,20.426,45.531,45.532,45.531c25.104,0,45.53-20.426,45.53-45.531
	C114.799,45.564,94.373,25.138,69.269,25.138"/>
<path fill="#FFFFFF" d="M184.896,25.495h41.174c9.741,0.086,16.772,1.97,21.094,5.655c4.321,3.685,6.479,10.569,6.479,20.649v3.177
	c0,1.102-0.084,2.206-0.254,3.305c-0.171,2.372-0.615,4.701-1.334,6.988c-0.72,2.288-1.969,4.193-3.749,5.719
	c-1.016,0.847-2.14,1.524-3.368,2.032c-1.229,0.508-2.478,0.932-3.749,1.271c-0.508,0.086-0.997,0.192-1.462,0.319
	s-0.951,0.232-1.461,0.316v0.381c4.999,0.427,8.642,2.033,10.93,4.83c2.288,2.794,3.43,6.692,3.43,11.689v18.426h-16.392V94.878
	l0.125-1.906c-0.084-4.233-1.291-7.115-3.62-8.642c-2.332-1.524-5.402-2.285-9.213-2.285h-22.875v28.209h-15.757V25.495z
	 M223.528,68.32c4.999,0.086,8.491-0.868,10.483-2.858c1.99-1.99,2.988-5.358,2.988-10.103c0-5.253-0.575-9.169-1.716-11.754
	c-1.145-2.583-4.725-3.875-10.739-3.875h-23.891V68.32H223.528z"/>
<path fill="#FFFFFF" d="M321.374,93.99l-5.209,16.264h-16.901l28.211-84.758h23.891l28.718,84.758h-16.521L358.1,93.99H321.374z
	 M339.674,37.949l-14.486,43.966h29.225L339.674,37.949z"/>
<polygon fill="#FFFFFF" points="506.266,110.254 479.326,110.254 443.492,39.346 442.982,39.346 443.492,110.254 427.734,110.254 
	427.734,25.496 454.547,25.496 490.381,96.404 490.891,96.404 490.381,25.496 506.266,25.496 "/>
<path fill="#FFFFFF" d="M561.924,25.495h41.681c10.844,0.086,18.872,2.564,24.081,7.436c5.209,4.873,7.814,12.896,7.814,24.081
	v3.619c0,1.231,0.04,2.438,0.128,3.624v3.558v3.558c0,10.505-1.652,19.612-4.956,27.321c-3.304,7.708-11.396,11.563-24.271,11.563
	h-44.478V25.495z M601.063,96.53c8.471,0.086,13.576-2.053,15.313-6.417c1.735-4.362,2.605-10.103,2.605-17.219v-4.703
	c0-2.709-0.022-5.464-0.065-8.258c-0.042-2.795-0.232-5.548-0.57-8.261c-0.594-4.997-2.352-8.259-5.273-9.784
	c-2.923-1.526-6.589-2.288-10.992-2.288h-24.018v56.93H601.063z"/>
<polygon fill="#FFFFFF" points="701.707,61.076 741.481,61.076 741.481,72.895 701.707,72.895 701.707,96.912 743.896,96.912 
	743.896,110.254 685.948,110.254 685.948,25.495 743.514,25.495 743.514,38.966 701.707,38.966 "/>
<polygon fill="#FFFFFF" points="868.554,25.495 841.23,110.254 816.706,110.254 789.639,25.495 806.287,25.495 829.033,96.657 
	851.78,25.495 "/>
<path fill="#FFFFFF" d="M985.843,25.495V82c0,9.164-1.632,16.145-4.893,20.938c-3.264,4.793-9.977,7.359-20.141,7.698
	c-0.766,0-1.525,0.02-2.29,0.063c-0.761,0.044-1.525,0.064-2.285,0.064c-0.848,0.085-1.652,0.126-2.416,0.126h-2.287
	c-11.267,0-20.077-1.314-26.43-3.944c-6.354-2.628-9.531-10.604-9.531-23.925V25.495h16.266v57.311
	c0,6.186,1.29,10.124,3.876,11.818c2.582,1.694,6.671,2.542,12.263,2.542l5.591-0.129c5.338,0.086,9.382-0.569,12.137-1.967
	c2.751-1.4,4.13-4.978,4.13-10.74v-2.161V25.495H985.843z"/>
</svg>
