<svg id="Layer_1" data-name="Layer 1" xmlns="http://www.w3.org/2000/svg" viewBox="0 0 3364.78 3364.78"><defs><style>.cls-1{fill:#fff;}.cls-2{fill:#3caa36;}.cls-3{fill:#0069ff;}</style></defs><circle class="cls-1" cx="1682.39" cy="1682.39" r="1682.39"/><path class="cls-2" d="M2600.17,1815.26l-8.71-2.24c-59-15.15-121.06,11.48-150.09,65.08-182.23,336.31-426.17,673.71-563.8,855.44-53.35,70.44-159.19,70.24-212.54-.2-49.4-65.24-112.48-150.49-181.47-248.53-49.23-70-150.69-76.26-208.06-12.8a133.5,133.5,0,0,0-9.48,167.18c192.47,269.17,371.24,490.19,455.18,591.6a65.13,65.13,0,0,0,100.4-.06c144.39-174.44,569.08-702.42,861.65-1220.88,43.09-76.34,1.83-172.78-83.08-194.59" transform="translate(-67.61 -67.61)"/><path class="cls-3" d="M1237,2406a122.65,122.65,0,0,0,39.67-169c-181.61-292.84-346.13-619.81-346.13-843.43,0-499.1,366.88-903.69,819.45-903.69s819.47,404.59,819.47,903.69c0,62.29-12.81,132.64-35.18,208-17.94,60.42,12.06,124.72,70.28,148.9l15.5,6.43c65.13,27.06,140-6.19,163-72.89,37.82-109.74,59.93-212,59.93-301.08,0-628.12-489.34-1137.3-1093-1137.3S657,754.79,657,1382.91c0,261.94,190.09,636.54,411.71,984.34,36.16,56.74,111,74.11,168.26,38.72" transform="translate(-67.61 -67.61)"/><path class="cls-2" d="M1750,1058.47c-211.17,0-382.34,176.36-382.34,393.9s171.17,393.89,382.34,393.89,382.34-176.36,382.34-393.89-171.18-393.9-382.34-393.9m0,593.35c-106.92,0-193.61-89.29-193.61-199.45s86.69-199.45,193.61-199.45,193.61,89.3,193.61,199.45-86.69,199.45-193.61,199.45" transform="translate(-67.61 -67.61)"/></svg>